<svg id="a5c16198-98a1-478b-8909-43624583dcf2" data-name="Layer 1" xmlns="http://www.w3.org/2000/svg" width="793" height="551.73152" viewBox="0 0 793 551.73152"><ellipse cx="158" cy="539.73152" rx="158" ry="12" fill="#e6e6e6"/><path d="M324.27227,296.55377c27.49676-11.6953,61.74442-4.28528,95.19331.85757.31124-6.228,4.08385-13.80782.132-18.15284-4.80115-5.2788-4.35917-10.82529-1.47008-16.40375,7.38788-14.265-3.1969-29.44375-13.88428-42.0647a23.66937,23.66937,0,0,0-19.75537-8.29179l-19.7975,1.41411A23.70939,23.70939,0,0,0,343.635,230.85851v0c-4.72724,6.42917-7.25736,12.84055-5.66438,19.21854-7.08065,4.83882-8.27029,10.67977-5.08851,17.2644,2.698,4.14592,2.66928,8.18161-.12275,12.1056a55.89079,55.89079,0,0,0-8.31011,16.5061Z" transform="translate(-203.5 -174.13424)" fill="#2f2e41"/><path d="M977.70889,651.09727H417.29111A18.79111,18.79111,0,0,1,398.5,632.30616h0q304.727-35.41512,598,0h0A18.79111,18.79111,0,0,1,977.70889,651.09727Z" transform="translate(-203.5 -174.13424)" fill="#2f2e41"/><path d="M996.5,633.41151l-598-1.10536,69.30611-116.61553.3316-.55268V258.13057a23.7522,23.7522,0,0,1,23.75418-23.75418H899.792a23.7522,23.7522,0,0,1,23.75418,23.75418V516.90649Z" transform="translate(-203.5 -174.13424)" fill="#3f3d56"/><path d="M996.5,633.41151l-598-1.10536,69.30611-116.61553.3316-.55268V258.13057a23.7522,23.7522,0,0,1,23.75418-23.75418H899.792a23.7522,23.7522,0,0,1,23.75418,23.75418V516.90649Z" transform="translate(-203.5 -174.13424)" fill="#f2f2f2"/><path d="M398.09058,634.01709c-.0692-2.7577,2.06272-5.05407,5.13022-5.05407H977.2899c3.0685,0,5.18536,2.2746,5.11464,5.05407-3.2649,119.14063-309.75017,117.86707-584.3114,0Z" transform="translate(-203.5 -174.13424)" fill="#5d5fef"/><circle cx="193.36341" cy="372.44680" r="25.91251" fill="#5d5fef"/><ellipse cx="313.72497" cy="380.09992" rx="29.49903" ry="39.37123" fill="#6366f1"/><path d="M399,466.01709c-18.41165-45.11-12.093-116.71302.0692-161.227.30829,14.09458.5166,27.777.5166,40.70576,0,67.81466-4.12081,127.14908-15.10956,125.7946C387.6533,469.45334,394.898,468.41263,399,466.01709Z" transform="translate(-203.5 -174.13424)" fill="#f2f2f2"/><path d="M400.93948,575.43881a27.93846,27.93846,0,0,0-25.66316-48.3728l85.23429-66.73577-15.62629-20.07922L349.90357,525.9307a28.23814,28.23814,0,0,0,51.03591,49.50811Z" transform="translate(-203.5 -174.13424)" fill="#6366f1"/><path d="M394,547.00791c-2.83-12.54412-12.11-23.78228-32.23-23.55627C380.25,525.04778,385.21,535.98167,394,547.00791Z" transform="translate(-203.5 -174.13424)" fill="#f2f2f2"/><path d="M633.01992,450.5286Z" transform="translate(-203.5 -174.13424)" fill="#f2f2f2"/><circle cx="321.94709" cy="27.14749" r="25.91251" fill="#f2f2f2"/><ellipse cx="442.31415" cy="27.14751" rx="29.49903" ry="39.37123" fill="#6366f1"/><path d="M600.29274,483.16366a93.62828,93.62828,0,0,1-17.22064-6.8722c-9.47055-4.89924-18.22525-11.63234-27.30148-17.62194-16.45591-10.8299-33.82664-20.72558-53.65134-23.02983-18.6583-2.16553-37.58654,2.93511-54.45648,10.76311-11.80471,5.47174-23.05409,12.01225-35.94206,13.97458a59.11468,59.11468,0,0,1-30.3664-3.92328,49.036,49.036,0,0,1-9.15746-4.98724l-.00349-.00213-.01058-.00427c-1.22607-.76141-2.39544-1.59173-3.57587-2.41018,2.52612-2.14,4.87167-4.46577,7.47471-6.38811,6.711-4.956,14.67488-8.06912,22.84462-9.95958a86.77575,86.77575,0,0,1,48.42035,1.99993c8.042,2.57288,15.498,6.65566,23.43586,9.536a86.9979,86.9979,0,0,0,26.02907,5.4963,80.81794,80.81794,0,0,0,45.04266-9.77718c12.94687-7.31385,24.09951-16.76862,35.77156-25.83908,22.82-17.711,59.74089-27.12827,86.45546-12.76595a42.39659,42.39659,0,0,1,13.27783,11.12648C628.6675,433.73767,618.71467,461.218,600.29274,483.16366Z" transform="translate(-203.5 -174.13424)" fill="#6366f1"/><path d="M525.04,527.93948l15.62378,15.28482a7.90785,7.90785,0,0,0,12.03-1.03073l25.42622-45.31193a26.78805,26.78805,0,0,0,1.93776-24.11373L576.95,444.41471a15.81626,15.81626,0,0,0-29.11856,6.10668l-22.37628,89.16981A7.98844,7.98844,0,0,0,525.04,527.93948Z" transform="translate(-203.5 -174.13424)" fill="#5d5fef"/><path d="M993.5,358.87683v4H156.5v-4a29.41543,29.41543,0,0,1,12.07519-23.68743c1.627-1.19151,3.32358-2.29283,5.07563-3.29287,26.57893-15.23462,56.58308-8.73427,92.80254-7.4394,80.63265,2.86783,170.28448,5.53691,225.08358-12.93175,19.13054-6.45347,36.95258-15.46066,57.92819-18.26155,20.02621-2.67112,40.20539.30245,59.88327,3.23544,25.31007,3.76948,56.68363,7.519,82.4077-3.27471a76.99472,76.99472,0,0,0,7.91992-3.8944c22.58077-12.32006,52.18946-18.89,83.99936-3.91572,9.48306,4.48006,18.63595,11.10423,29.67908,10.08867,3.85546-.35507,7.67235-1.45893,11.47186-2.14336a127.86744,127.86744,0,0,1,52.05084,.30889,43.139,43.139,0,0,1,20.97797,9.71221c5.39414,5.01462,9.29129,11.10654,10.618,18.32909a27.72457,27.72457,0,0,1,.75885,6.46034Z" transform="translate(-203.5 -174.13424)" fill="#6366f1"/><path d="M585.93076,285.44583C576.25787,305.85556,543.4042,309.95295,526.86,297.04c13.22008-12.55351,27.06du4981-24.27816,42.17682-32.18837A37.68011,37.68011,0,0,1,585.93076,285.44583Z" transform="translate(-203.5 -174.13424)" fill="#f2f2f2"/><path d="M711.28293,193.07441a17.06853,17.06853,0,0,0-3.51014,26.336,17.66444,17.66444,0,0,0,3.52519,2.63045,17.06828,17.06828,0,0,0,19.48957-28.05991c-.45194-.38254-.90108-.75908-1.38323-1.10033A17.69337,17.69337,0,0,0,711.28293,193.07441Z" transform="translate(-203.5 -174.13424)" fill="#5d5fef"/><path d="M741.26928,220.758a17.40619,17.40619,0,0,0,19.73058-27.6499q-.42969-.3872-.90407-.73405a17.58267,17.58267,0,0,0-21.66952,1.61593,17.40628,17.40628,0,0,0,2.843,26.76792Z" transform="translate(-203.5 -174.13424)" fill="#6366f1"/><path d="M580.47627,232.05667a3.03424,3.03424,0,0,0-4.28586,0l-10.84059,11.21069a3.12015,3.12015,0,0,0-.62878,3.41448,3.03113,3.03113,0,0,0,4.91464.55872l10.84059-11.21065a3.02579,3.02579,0,0,0,0-3.97324Z" transform="translate(-203.5 -174.13424)" fill="#e6e6e6"/><path d="M571.49549,256.0252a3.03677,3.03677,0,0,0,4.28586,0L586.622,244.81452a3.02579,3.02579,0,0,0,0-3.97324,3.03424,3.03424,0,0,0-4.28586,0L571.49549,252.0517a3.02579,3.02579,0,0,0,0,3.9735Z" transform="translate(-203.5 -174.13424)" fill="#e6e6e6"/><path d="M537.60887,272.611a3.03677,3.03677,0,0,0,4.28586,0l18.61024-19.26a3.03031,3.03031,0,0,0-4.28586-3.97329l-18.61024,19.2603a3.02585,3.02585,0,0,0,0,3.97326Z" transform="translate(-203.5 -174.13424)" fill="#e6e6e6"/></svg>
